<mxfile host="app.diagrams.net" modified="2022-05-28T07:24:38.799Z" agent="5.0 (Windows NT 10.0; Win64; x64) AppleWebKit/537.36 (KHTML, like Gecko) Chrome/101.0.4951.67 Safari/537.36" etag="nLHO6yQ8vFtLj7nNQA5A" version="18.1.3" type="github">
  <diagram id="JpmGLEwog_HNqvh-z7C6" name="Page-1">
    <mxGraphModel dx="770" dy="776" grid="1" gridSize="10" guides="1" tooltips="1" connect="1" arrows="1" fold="1" page="1" pageScale="1" pageWidth="1100" pageHeight="850" math="0" shadow="0">
      <root>
        <mxCell id="0" />
        <mxCell id="1" parent="0" />
        <mxCell id="El7Su7ub-5IiLx7_zBoi-2" style="edgeStyle=none;rounded=0;orthogonalLoop=1;jettySize=auto;html=1;entryX=0.2;entryY=0.059;entryDx=0;entryDy=0;entryPerimeter=0;endArrow=none;endFill=0;dashed=1;" edge="1" parent="1" source="6EtcjZXcioqMibFF7NQl-1" target="El7Su7ub-5IiLx7_zBoi-1">
          <mxGeometry relative="1" as="geometry" />
        </mxCell>
        <mxCell id="6EtcjZXcioqMibFF7NQl-1" value="Identity Account" style="points=[[0,0],[0.25,0],[0.5,0],[0.75,0],[1,0],[1,0.25],[1,0.5],[1,0.75],[1,1],[0.75,1],[0.5,1],[0.25,1],[0,1],[0,0.75],[0,0.5],[0,0.25]];outlineConnect=0;gradientColor=none;html=1;whiteSpace=wrap;fontSize=12;fontStyle=0;container=1;pointerEvents=0;collapsible=0;recursiveResize=0;shape=mxgraph.aws4.group;grIcon=mxgraph.aws4.group_aws_cloud;strokeColor=#232F3E;fillColor=none;verticalAlign=top;align=left;spacingLeft=30;fontColor=#232F3E;dashed=0;" parent="1" vertex="1">
          <mxGeometry x="80" y="200" width="160" height="160" as="geometry" />
        </mxCell>
        <mxCell id="6EtcjZXcioqMibFF7NQl-4" value="IAM user" style="sketch=0;outlineConnect=0;fontColor=#232F3E;gradientColor=none;fillColor=#232F3D;strokeColor=none;dashed=0;verticalLabelPosition=bottom;verticalAlign=top;align=center;html=1;fontSize=12;fontStyle=0;aspect=fixed;pointerEvents=1;shape=mxgraph.aws4.user;" parent="6EtcjZXcioqMibFF7NQl-1" vertex="1">
          <mxGeometry x="41" y="50" width="78" height="78" as="geometry" />
        </mxCell>
        <mxCell id="6EtcjZXcioqMibFF7NQl-2" value="Account A" style="points=[[0,0],[0.25,0],[0.5,0],[0.75,0],[1,0],[1,0.25],[1,0.5],[1,0.75],[1,1],[0.75,1],[0.5,1],[0.25,1],[0,1],[0,0.75],[0,0.5],[0,0.25]];outlineConnect=0;gradientColor=none;html=1;whiteSpace=wrap;fontSize=12;fontStyle=0;container=1;pointerEvents=0;collapsible=0;recursiveResize=0;shape=mxgraph.aws4.group;grIcon=mxgraph.aws4.group_aws_cloud;strokeColor=#232F3E;fillColor=none;verticalAlign=top;align=left;spacingLeft=30;fontColor=#232F3E;dashed=0;" parent="1" vertex="1">
          <mxGeometry x="360" y="80" width="240" height="160" as="geometry" />
        </mxCell>
        <mxCell id="6EtcjZXcioqMibFF7NQl-5" value="cross-account role" style="sketch=0;outlineConnect=0;fontColor=#232F3E;gradientColor=none;fillColor=#BF0816;strokeColor=none;dashed=0;verticalLabelPosition=bottom;verticalAlign=top;align=center;html=1;fontSize=12;fontStyle=0;aspect=fixed;pointerEvents=1;shape=mxgraph.aws4.role;" parent="6EtcjZXcioqMibFF7NQl-2" vertex="1">
          <mxGeometry x="20" y="60" width="78" height="44" as="geometry" />
        </mxCell>
        <mxCell id="6EtcjZXcioqMibFF7NQl-7" value="" style="sketch=0;points=[[0,0,0],[0.25,0,0],[0.5,0,0],[0.75,0,0],[1,0,0],[0,1,0],[0.25,1,0],[0.5,1,0],[0.75,1,0],[1,1,0],[0,0.25,0],[0,0.5,0],[0,0.75,0],[1,0.25,0],[1,0.5,0],[1,0.75,0]];outlineConnect=0;fontColor=#232F3E;gradientColor=#60A337;gradientDirection=north;fillColor=#277116;strokeColor=#ffffff;dashed=0;verticalLabelPosition=bottom;verticalAlign=top;align=center;html=1;fontSize=12;fontStyle=0;aspect=fixed;shape=mxgraph.aws4.resourceIcon;resIcon=mxgraph.aws4.s3;" parent="6EtcjZXcioqMibFF7NQl-2" vertex="1">
          <mxGeometry x="140" y="43" width="78" height="78" as="geometry" />
        </mxCell>
        <mxCell id="6EtcjZXcioqMibFF7NQl-3" value="Account B" style="points=[[0,0],[0.25,0],[0.5,0],[0.75,0],[1,0],[1,0.25],[1,0.5],[1,0.75],[1,1],[0.75,1],[0.5,1],[0.25,1],[0,1],[0,0.75],[0,0.5],[0,0.25]];outlineConnect=0;gradientColor=none;html=1;whiteSpace=wrap;fontSize=12;fontStyle=0;container=1;pointerEvents=0;collapsible=0;recursiveResize=0;shape=mxgraph.aws4.group;grIcon=mxgraph.aws4.group_aws_cloud;strokeColor=#232F3E;fillColor=none;verticalAlign=top;align=left;spacingLeft=30;fontColor=#232F3E;dashed=0;" parent="1" vertex="1">
          <mxGeometry x="360" y="280" width="240" height="160" as="geometry" />
        </mxCell>
        <mxCell id="6EtcjZXcioqMibFF7NQl-6" value="cross-account-role" style="sketch=0;outlineConnect=0;fontColor=#232F3E;gradientColor=none;fillColor=#BF0816;strokeColor=none;dashed=0;verticalLabelPosition=bottom;verticalAlign=top;align=center;html=1;fontSize=12;fontStyle=0;aspect=fixed;pointerEvents=1;shape=mxgraph.aws4.role;" parent="6EtcjZXcioqMibFF7NQl-3" vertex="1">
          <mxGeometry x="20" y="48" width="78" height="44" as="geometry" />
        </mxCell>
        <mxCell id="6EtcjZXcioqMibFF7NQl-8" value="" style="sketch=0;points=[[0,0,0],[0.25,0,0],[0.5,0,0],[0.75,0,0],[1,0,0],[0,1,0],[0.25,1,0],[0.5,1,0],[0.75,1,0],[1,1,0],[0,0.25,0],[0,0.5,0],[0,0.75,0],[1,0.25,0],[1,0.5,0],[1,0.75,0]];outlineConnect=0;fontColor=#232F3E;gradientColor=#F78E04;gradientDirection=north;fillColor=#D05C17;strokeColor=#ffffff;dashed=0;verticalLabelPosition=bottom;verticalAlign=top;align=center;html=1;fontSize=12;fontStyle=0;aspect=fixed;shape=mxgraph.aws4.resourceIcon;resIcon=mxgraph.aws4.compute;" parent="6EtcjZXcioqMibFF7NQl-3" vertex="1">
          <mxGeometry x="140" y="41" width="78" height="78" as="geometry" />
        </mxCell>
        <mxCell id="6EtcjZXcioqMibFF7NQl-9" value="Assume Role" style="rounded=0;orthogonalLoop=1;jettySize=auto;html=1;entryX=0;entryY=0.5;entryDx=0;entryDy=0;" parent="1" source="6EtcjZXcioqMibFF7NQl-4" target="6EtcjZXcioqMibFF7NQl-2" edge="1">
          <mxGeometry relative="1" as="geometry" />
        </mxCell>
        <mxCell id="6EtcjZXcioqMibFF7NQl-10" value="Assume Role" style="edgeStyle=none;rounded=0;orthogonalLoop=1;jettySize=auto;html=1;entryX=0;entryY=0.5;entryDx=0;entryDy=0;" parent="1" source="6EtcjZXcioqMibFF7NQl-4" target="6EtcjZXcioqMibFF7NQl-3" edge="1">
          <mxGeometry relative="1" as="geometry" />
        </mxCell>
        <mxCell id="El7Su7ub-5IiLx7_zBoi-1" value="&lt;div&gt;{&lt;/div&gt;&lt;div&gt;&amp;nbsp; &quot;Version&quot;: &quot;2012-10-17&quot;,&lt;/div&gt;&lt;div&gt;&amp;nbsp; &quot;Statement&quot;: {&lt;/div&gt;&lt;div&gt;&amp;nbsp; &amp;nbsp; &quot;Effect&quot;: &quot;Allow&quot;,&lt;/div&gt;&lt;div&gt;&amp;nbsp; &amp;nbsp; &quot;Action&quot;: &quot;sts:AssumeRole&quot;,&lt;/div&gt;&lt;div&gt;&amp;nbsp; &amp;nbsp; &quot;Resource&quot;: &quot;arn:aws:iam::PRODUCTION-ACCOUNT-ID:role/UpdateApp&quot;&lt;/div&gt;&lt;div&gt;&amp;nbsp; }&lt;/div&gt;&lt;div&gt;}&lt;/div&gt;" style="whiteSpace=wrap;html=1;align=left;" vertex="1" parent="1">
          <mxGeometry x="50" y="480" width="550" height="170" as="geometry" />
        </mxCell>
      </root>
    </mxGraphModel>
  </diagram>
</mxfile>
